<svg xmlns="http://www.w3.org/2000/svg" viewBox="0 0 24 24"><defs><style>.cls-1{fill:none}.cls-2{fill:#ca64ea}.cls-3{opacity:.75}.cls-4{fill:#7719aa}.cls-5{fill:#fff}.cls-6{fill:#ae4bd5}.cls-7{fill:#9332bf}</style></defs><title>OneNote_24x</title><g id="OneNote"><g id="_24" data-name="24"><rect width="24" height="24" class="cls-1"/><path d="M23,1H7A1,1,0,0,0,6,2V22a1,1,0,0,0,1,1H20.23A3.77,3.77,0,0,0,24,19.23V2A1,1,0,0,0,23,1Z" class="cls-2"/><path d="M13.83,6H6V20h7.6A1.5,1.5,0,0,0,15,18.65V7.17A1.18,1.18,0,0,0,13.83,6Z" class="cls-3"/><rect id="Back_Plate" width="14" height="14" y="5" class="cls-4" data-name="Back Plate" rx="1.17"/><path d="M3.8,8H5.5l2.94,5.16a5.34,5.34,0,0,1,.33.77h0a6.57,6.57,0,0,1-.05-1.06V8H10.2v8H8.61L5.55,10.68a5.11,5.11,0,0,1-.31-.55h0a10.22,10.22,0,0,1,0,1.16V16H3.8Z" class="cls-5"/><rect width="6" height="6" x="18" y="5" class="cls-6"/><rect width="6" height="6" x="18" y="11" class="cls-7"/><path d="M18,17v6h5a1,1,0,0,0,1-1V17Z" class="cls-4"/></g></g></svg>