<svg xmlns="http://www.w3.org/2000/svg" xmlns:xlink="http://www.w3.org/1999/xlink" id="Livello_1" x="0" y="0" enable-background="new 0 0 1993.481 1947.121" version="1.1" viewBox="0 0 1993.481 1947.121" xml:space="preserve"><metadata><sfw xmlns="http://ns.adobe.com/SaveForWeb/1.0/"><slices/><sliceSourceBounds width="1993.481" height="1947.121" x="-995.92" y="-949.56" bottomLeftOrigin="true"/></sfw></metadata><path fill="#881421" d="M463.6,1251.72v463.6c0,128,342.462,231.8,764.94,231.8s764.94-103.8,764.94-231.8v-463.6H463.6z"/><path fill="#AF2031" d="M463.6,741.76v509.96c0,128,342.462,231.8,764.94,231.8s764.94-103.8,764.94-231.8V741.76H463.6z"/><path fill="#C94F60" d="M463.6,231.8v509.96c0,128,342.462,231.8,764.94,231.8s764.94-103.8,764.94-231.8V231.8H463.6z"/><ellipse cx="1228.541" cy="231.8" fill="#E08095" rx="764.94" ry="231.8"/><path d="M1027.662,417.24H463.6v1159h564.062c46.869-0.153,84.825-38.109,84.978-84.978	V502.218C1112.488,455.349,1074.531,417.393,1027.662,417.24z" enable-background="new" opacity=".1"/><path d="M981.302,463.6H463.6v1159h517.702c46.869-0.153,84.825-38.109,84.978-84.978	V548.578C1066.128,501.709,1028.171,463.753,981.302,463.6z" enable-background="new" opacity=".2"/><path d="M981.302,463.6H463.6v1066.28h517.702c46.869-0.153,84.825-38.109,84.978-84.978	V548.578C1066.128,501.709,1028.171,463.753,981.302,463.6z" enable-background="new" opacity=".2"/><path d="M934.943,463.6H463.6v1066.28h471.342c46.869-0.153,84.825-38.109,84.978-84.978	V548.578C1019.768,501.709,981.811,463.753,934.943,463.6z" enable-background="new" opacity=".2"/><linearGradient id="SVGID_1_" x1="177.181" x2="842.74" y1="1551.92" y2="399.2" gradientTransform="matrix(1 0 0 -1 0 1949.1207)" gradientUnits="userSpaceOnUse"><stop offset="0" style="stop-color:#b72c3f"/><stop offset=".5" style="stop-color:#b12334"/><stop offset="1" style="stop-color:#9d1623"/></linearGradient><path fill="url(#SVGID_1_)" d="M84.978,463.6h849.965c46.932,0,84.978,38.046,84.978,84.978v849.964	c0,46.932-38.046,84.978-84.978,84.978H84.978c-46.932,0-84.978-38.046-84.978-84.978V548.578C0,501.646,38.046,463.6,84.978,463.6z"/><path fill="#FFF" d="M448.904,697.301h125.172l201.11,552.472H656.968l-44.32-131.755H405.743l-43.532,131.755H244.735	L448.904,697.301z M586.037,1032.901l-64.301-199.951c-5.257-14.656-9.198-29.752-11.775-45.108h-2.318	c-2.39,15.78-6.255,31.302-11.544,46.36l-64.904,198.792L586.037,1032.901z"/></svg>