<svg xmlns="http://www.w3.org/2000/svg" viewBox="0 0 24 24"><defs><style>.cls-1{fill:none}.cls-2{fill:#41a5ee}.cls-3{fill:#2b7cd3}.cls-4{fill:#185abd}.cls-5{fill:#103f91}.cls-6{opacity:.5}.cls-7{fill:#fff}</style></defs><title>Word_24x</title><g id="Word"><g id="_24" data-name="24"><rect width="24" height="24" class="cls-1"/><path d="M24,7V2a1,1,0,0,0-1-1H7A1,1,0,0,0,6,2V7l9,2Z" class="cls-2"/><polygon points="24 7 6 7 6 12 15.5 14 24 12 24 7" class="cls-3"/><polygon points="24 12 6 12 6 17 15 18.5 24 17 24 12" class="cls-4"/><path d="M6,17H24a0,0,0,0,1,0,0v5a1,1,0,0,1-1,1H7a1,1,0,0,1-1-1V17a0,0,0,0,1,0,0Z" class="cls-5"/><path d="M13.83,6H6V20h7.6A1.5,1.5,0,0,0,15,18.65V7.17A1.18,1.18,0,0,0,13.83,6Z" class="cls-6"/><rect id="Back_Plate" width="14" height="14" y="5" class="cls-4" data-name="Back Plate" rx="1.17"/><path id="Letter" d="M10.16,16H8.72L7,10.48,5.28,16H3.84L2.24,8H3.68L4.8,13.6,6.48,8.16h1.2l1.6,5.44L10.4,8h1.36Z" class="cls-7"/></g></g></svg>